# xmcd
#
# Track frame offsets:
#	200
#	13440
#	28672
#	46785
#	65932
#	80647
#	95675
#	108115
#	122592
#	135680
#	152397
#
# Disc length: 2163 seconds
#
# Revision: 4
# Processed by: cddbd v1.5.2PL0 Copyright (c) Steve Scherf et al.
# Submitted via: audiograbber 1.83.01
#
DISCID=8f08710b
DTITLE=Kieran Kane - Dead Rekoning
DYEAR=1995
DGENRE=Country
TTITLE0=This Dirty Little Town (with Emmylou Harris and Lucinda Williams)
TTITLE1=He Never Knew What Hit Him
TTITLE2=Cool Me Down
TTITLE3=Bell Ringing In An Empty Sky (with Somebody's Darling)
TTITLE4=Je Suis Tres Contendre
TTITLE5=Ramblin' Man
TTITLE6=Eight More Miles
TTITLE7=If It's Not Love
TTITLE8=Find Somebody New
TTITLE9=So Many Miles (with Somebody's Darling)
TTITLE10=Love's Gonna Live Here
EXTD=YEAR: 1995
EXTT0=
EXTT1=
EXTT2=
EXTT3=
EXTT4=
EXTT5=
EXTT6=
EXTT7=
EXTT8=
EXTT9=
EXTT10=
PLAYORDER=
